<?xml version="1.0" standalone="no"?>
<!DOCTYPE svg PUBLIC "-//W3C//DTD SVG 20010904//EN"
 "http://www.w3.org/TR/2001/REC-SVG-20010904/DTD/svg10.dtd">
<svg version="1.0" xmlns="http://www.w3.org/2000/svg"
 width="4464.000000pt" height="4464.000000pt" viewBox="0 0 4464.000000 4464.000000"
 preserveAspectRatio="xMidYMid meet">
<metadata>
Created by potrace 1.16, written by Peter Selinger 2001-2019
</metadata>
<g transform="translate(0.000000,4464.000000) scale(0.100000,-0.100000)"
fill="#000000" stroke="none">
<path d="M26680 39354 c0 -3 55 -65 123 -137 320 -344 607 -707 874 -1107 111
-167 263 -411 263 -424 0 -3 -71 29 -157 73 -1317 659 -2872 1135 -4388 1345
-626 87 -1141 124 -1825 133 -611 8 -1077 -12 -1640 -68 -2635 -262 -5128
-1236 -7255 -2833 -611 -459 -1251 -1027 -1762 -1564 -106 -112 -193 -207
-193 -212 0 -4 60 12 133 35 637 209 1379 364 2077 434 390 39 537 46 1030 46
492 0 638 -6 1030 -46 647 -65 1391 -217 1995 -407 68 -22 68 -23 -70 -52 -55
-12 -217 -51 -359 -87 -3383 -847 -6369 -2917 -8372 -5803 -602 -868 -1134
-1852 -1524 -2820 -545 -1352 -884 -2774 -999 -4195 -27 -325 -29 -355 -22
-355 3 0 26 35 50 78 135 237 397 642 593 917 837 1175 1813 2155 2996 3009
l53 39 -14 -34 c-8 -19 -38 -88 -67 -154 -592 -1368 -984 -2939 -1110 -4460
-35 -430 -41 -563 -47 -1065 -6 -504 3 -837 32 -1240 238 -3248 1539 -6276
3739 -8700 195 -214 614 -638 836 -845 1299 -1209 2804 -2171 4430 -2830 308
-125 809 -309 818 -300 2 2 -54 84 -124 182 -1048 1469 -1771 3144 -2118 4911
-58 293 -162 967 -152 980 2 1 60 -61 130 -138 275 -301 686 -698 1026 -990
1323 -1135 2873 -1969 4545 -2445 875 -249 1766 -396 2705 -445 249 -13 958
-13 1205 0 2205 115 4245 785 6068 1993 232 154 291 199 240 183 -97 -29 -569
-114 -813 -146 -445 -57 -760 -74 -1267 -67 -403 5 -513 12 -838 48 -1640 181
-3207 837 -4498 1882 -331 267 -805 723 -1069 1027 -781 899 -1347 1885 -1714
2985 -252 757 -390 1492 -435 2310 -22 411 -3 1015 47 1440 176 1526 755 2979
1675 4205 270 360 489 611 818 941 211 211 383 369 561 518 l75 62 5 -103 5
-103 13 155 c54 660 253 1363 563 1981 433 867 1110 1627 1914 2151 496 324
1089 586 1633 722 390 98 637 124 1452 151 460 15 623 22 676 31 25 3 75 51
256 242 505 533 1157 1113 1763 1568 273 205 554 406 543 388 -8 -11 -258
-652 -258 -659 0 -3 69 -5 154 -5 85 0 157 -3 159 -7 2 -5 -146 -390 -329
-858 -187 -476 -329 -852 -324 -855 6 -4 -5 -49 -25 -111 -39 -115 -97 -325
-88 -315 3 3 32 72 63 153 283 730 683 1377 1231 1988 236 263 584 592 857
809 864 688 1832 1153 2942 1414 l125 29 -60 27 c-237 107 -595 230 -872 300
-1274 319 -2717 144 -3902 -475 -348 -182 -706 -415 -973 -636 l-78 -63 42
117 c220 629 620 1314 1052 1805 l86 98 -76 127 c-180 300 -424 655 -642 932
-274 348 -670 773 -997 1070 -1030 936 -2257 1612 -3586 1976 -169 46 -279 72
-636 150 -13 3 -23 3 -23 -1z"/>
<path d="M33744 31457 c-420 -458 -716 -889 -984 -1432 -139 -282 -212 -459
-320 -783 -263 -785 -390 -1541 -431 -2577 -13 -318 -7 -1107 11 -1490 14
-317 39 -791 46 -901 l7 -91 73 -7 c110 -10 217 -41 323 -92 457 -219 671
-736 501 -1206 -109 -301 -363 -532 -675 -614 -85 -23 -120 -27 -240 -27 -120
0 -155 4 -240 27 -188 50 -383 171 -492 305 -26 33 -50 60 -53 60 -5 0 -481
-1215 -488 -1245 -3 -12 36 -14 247 -14 138 0 251 -3 251 -7 0 -5 -150 -390
-333 -858 l-333 -850 393 -3 c216 -1 393 -4 393 -7 0 -13 -94 -242 -104 -252
-12 -13 -183 -67 -356 -112 -246 -65 -508 -113 -830 -153 -166 -21 -226 -23
-590 -22 -356 0 -427 3 -589 22 -671 82 -1263 255 -1821 533 -387 193 -731
413 -1075 687 -79 63 -79 63 -25 11 71 -68 222 -189 347 -277 153 -108 373
-236 673 -392 636 -330 833 -462 1101 -736 326 -334 621 -820 801 -1319 153
-423 231 -818 254 -1282 l7 -143 2756 0 2756 0 -17 186 c-30 335 -38 575 -88
2589 -51 2028 -58 2537 -40 2776 32 409 111 734 250 1026 105 220 231 418 520
818 358 494 450 655 550 955 83 253 119 486 127 840 6 279 -1 437 -48 1040
-43 563 -87 891 -175 1298 -281 1311 -898 2613 -1720 3632 -151 187 -180 220
-191 220 -4 0 -63 -60 -129 -133z"/>
<path d="M31507 26928 c-80 -205 -149 -381 -152 -390 -7 -17 3 -18 123 -18 95
0 131 -3 135 -12 2 -7 7 88 11 212 4 124 13 304 20 400 8 96 13 176 11 178 -1
1 -68 -165 -148 -370z"/>
<path d="M31520 25774 c-79 -204 -83 -217 -66 -230 17 -12 10 -35 -123 -374
-77 -198 -141 -363 -141 -365 0 -2 51 -6 113 -7 l113 -3 -310 -795 c-171 -437
-321 -821 -333 -852 l-22 -58 167 0 167 0 1 128 c0 95 6 149 22 216 68 273
260 515 509 639 l71 36 -4 38 c-4 38 -25 435 -44 808 -5 110 -14 371 -20 580
-6 209 -12 397 -13 418 -2 32 -15 6 -87 -179z"/>
<path d="M31940 23680 c-215 -55 -370 -253 -370 -475 0 -103 42 -225 102 -298
l23 -28 360 0 360 0 23 28 c13 15 34 49 48 75 132 255 12 570 -257 679 -60 24
-226 35 -289 19z"/>
</g>
</svg>
