<?xml version="1.0" standalone="yes"?>
<svg xmlns="http://www.w3.org/2000/svg" width="4464" height="4464">

<path style="fill:#d4d4d8; stroke:none;" d="M2668 528C2670.77 533.942 2676.31 538.092 2680.58 543C2690.49 554.409 2700.81 565.442 2710.58 577C2740.74 612.707 2774.09 653.405 2794 696C2759.5 675.865 2721.03 660.413 2684 645.6C2617.57 619.028 2549.65 596.626 2480 580.116C2116.07 493.841 1727.2 549.158 1404 738.989C1313.92 791.896 1231.39 854.833 1154 924.83C1132.55 944.235 1110.87 964.281 1091.71 986C1085.15 993.445 1076.11 999.77 1072 1009C1186.67 971.688 1308.15 950.75 1429 956.039C1729.42 969.187 2015.42 1110.25 2199.12 1351C2259.43 1430.05 2309.2 1516.99 2344.58 1610C2376.45 1693.8 2399.38 1784.38 2405.91 1874C2406.96 1888.37 2404.07 1902.69 2403.09 1917C2401.73 1936.89 2402 1957.04 2402 1977L2403 1977C2403 1927.63 2414.1 1876.69 2429.67 1830C2476.53 1689.4 2579.27 1568.42 2714 1504.78C2753.78 1485.99 2796.59 1470.25 2840 1462.42C2863.81 1458.13 2888.41 1458.38 2912 1454L2907 1468L2915 1468C2912.69 1483.45 2903.45 1499.44 2897.81 1514C2881.8 1555.35 2860.69 1597.26 2849 1640L2862 1640L2846.42 1681L2810.58 1773L2796 1812L2814 1812L2793 1867L2797 1867L2764.95 1949L2752 1984L2774 1984C2757.98 2042.7 2724.02 2096.31 2708 2155L2721 2155L2687.42 2242L2612 2435L2584 2412C2593.59 2425.62 2609.79 2436.87 2623 2446.87C2663.72 2477.7 2710.73 2496.35 2754 2522.81C2813.95 2559.47 2857.12 2614.66 2884.57 2679C2911.85 2742.94 2923.53 2812.85 2916.83 2882C2911.07 2941.44 2894.33 2998.97 2896.96 3059C2898.66 3097.79 2910 3139.66 2938 3168C2946.32 3176.41 2954.88 3183.99 2965 3190.19C3014.78 3220.7 3076.58 3225.73 3133 3235.08C3176.31 3242.26 3219.61 3249.7 3263 3256.42C3287.17 3260.17 3311.52 3265.89 3336 3266.96C3377.4 3268.77 3416.02 3256.91 3441.25 3222C3488.24 3157 3490.34 3064.72 3485.09 2988C3480.58 2922.2 3470.59 2856.8 3466.09 2791C3461.25 2720.37 3461.75 2648.77 3460.01 2578C3458.48 2515.36 3458.7 2452.6 3455.96 2390C3453.47 2333.17 3450.8 2271.85 3468.67 2217C3490.25 2150.76 3541.19 2103.13 3573.69 2043C3586.31 2019.65 3593.88 1993.16 3597.73 1967C3604.74 1919.43 3599.36 1871.57 3596.09 1824C3586.96 1691.4 3551.88 1563.67 3487.14 1447C3467.48 1411.57 3445.42 1377.42 3421.1 1345C3410.89 1331.37 3398.75 1318.89 3389 1305C3383.29 1306.62 3380.03 1311.88 3376 1316C3366.73 1325.49 3358.24 1335.81 3349.75 1346C3313.29 1389.77 3282.64 1440.25 3261 1493L3263 1492L3263 1493C3254.27 1501.24 3250.74 1518.79 3247 1530C3236.86 1560.38 3228.3 1590.79 3221.12 1622C3200.67 1710.92 3196.06 1807.03 3200.04 1898C3202.19 1947.12 3206.99 1996.87 3207 2046C3219.98 2046.04 3233.35 2049.03 3245 2054.76C3308.16 2085.79 3323.98 2172.12 3267 2218.2C3257.65 2225.76 3247.44 2231.83 3236 2235.65C3173.77 2256.37 3101.71 2204.6 3108.17 2137C3111.98 2097.1 3135.94 2072.3 3169 2053C3165.95 2036.56 3166.69 2018.7 3165.96 2002C3164.47 1968.02 3163.45 1934.01 3161.96 1900C3154.96 1739.91 3173.95 1568.04 3251.31 1425C3286.44 1360.05 3333.2 1299.75 3388 1250.17C3434.17 1208.4 3484.25 1172.37 3539 1142.69C3580.04 1120.44 3623.45 1102.82 3668 1088.97C3689.33 1082.35 3711.79 1074.87 3734 1072L3734 1071C3691.7 1048.45 3640.18 1035.53 3593 1028.73C3473.28 1011.48 3348.54 1032.94 3242 1090.69C3208.83 1108.67 3174.87 1129.35 3147 1155C3158.94 1103.38 3190.72 1050.65 3221.14 1008C3230.93 994.277 3241.14 980.787 3252.13 968C3255.17 964.458 3263.4 958.048 3262.86 953C3262.39 948.469 3257.69 942.806 3255.32 939C3249.48 929.63 3243.79 920.187 3237.67 911C3213.62 874.937 3187.81 840.55 3159.16 808C3031.95 663.501 2856.72 564.605 2668 528z"/>
<path style="fill:#d4d4d8; stroke:none;" d="M563 2333C567.809 2329.86 570.477 2322.87 573.4 2318C579.841 2307.26 586.345 2296.57 593.053 2286C615.339 2250.88 639.415 2216.5 665.4 2184C742.702 2087.33 831.304 2002.12 932 1930C925.64 1952.09 913.626 1973.44 905.424 1995C888.805 2038.69 873.948 2082.96 861.424 2128C822.27 2268.82 805.44 2415.06 809.015 2561C820.283 3021.02 1062.13 3454.58 1440 3715.03C1515.54 3767.09 1596.16 3810.82 1680 3847.86C1716.59 3864.02 1755.98 3882.75 1795 3892C1787.19 3871.7 1767.76 3852.22 1755.67 3834C1732.32 3798.8 1711.39 3762.13 1691.31 3725C1630.13 3611.88 1589.2 3486.33 1566.42 3360C1508.09 3036.43 1580.08 2696.24 1765.34 2424C1844.87 2307.14 1943.97 2203.9 2057 2119.13C2130.69 2063.86 2210.28 2017.03 2294 1978.69C2328.16 1963.05 2365.27 1944.5 2402 1936L2402 1943C2406.38 1932.57 2402.93 1915.46 2404.29 1904C2411.58 1842.2 2392.82 1773.78 2377.87 1714C2317.38 1472.01 2157.45 1251.5 1947 1117.95C1890.13 1081.86 1830.33 1048.76 1767 1025.32C1753.05 1020.15 1739.02 1015.3 1725 1010.31C1718.29 1007.92 1710.29 1003.7 1703 1004.48C1669.13 1008.12 1633.55 1020.52 1601 1030.28C1529.05 1051.86 1458.94 1078.13 1391 1110.22C1057.1 1267.94 791.193 1553.65 657.811 1898C621.793 1990.99 594.717 2088.4 579.424 2187C574.531 2218.55 570.244 2250.23 567.17 2282C565.544 2298.8 566.074 2316.44 563 2333z"/>
<path style="fill:#d4d4d8; stroke:none;" d="M3146 1155L3147 1156L3146 1155z"/>
<path style="fill:#d4d4d8; stroke:none;" d="M2865 1201L2865 1235L2865.6 1249.7L2881.4 1263.46L2883 1285C2888.64 1283.39 2900.41 1280.22 2903.99 1275.36C2909.08 1268.44 2908.15 1251.43 2909.16 1243C2909.77 1237.89 2913.12 1227.15 2909.97 1222.64C2907.63 1219.27 2901.55 1217.53 2898 1215.75C2887.64 1210.58 2876.28 1203.68 2865 1201M3369 1323L3370 1324L3369 1323M3361 1332L3362 1333L3361 1332z"/>
<path style="fill:#d4d4d8; stroke:none;" d="M2612 2435L2634.2 2379L2679.2 2264L2706.6 2194L2721 2155L2708 2155C2722.29 2117.94 2736.65 2080.88 2751.4 2044C2758.94 2025.14 2770.56 2004 2774 1984L2752 1984L2797 1867L2793 1867L2814 1812L2796 1812C2808 1768.12 2830.1 1725.64 2846.05 1683C2851.2 1669.23 2859.82 1654.56 2862 1640L2849 1640C2863.75 1601.96 2878.46 1563.89 2893.6 1526C2900.6 1508.5 2913.35 1486.77 2915 1468L2907 1468L2912 1454C2876.17 1458.53 2841.17 1460.64 2806 1470.15C2692.48 1500.86 2590.6 1569.36 2518.42 1662C2376.27 1844.46 2364.36 2102.53 2486.95 2298C2518.41 2348.16 2561.17 2403.21 2612 2435z"/>
<path style="fill:#d4d4d8; stroke:none;" d="M3262.33 1492.67L3262.67 1493.33L3262.33 1492.67z"/>
<path style="fill:#d4d4d8; stroke:none;" d="M932 1929L933 1930L932 1929z"/>
<path style="fill:#d4d4d8; stroke:none;" d="M3149 3468C2990.77 3500.64 2829.02 3497.46 2675 3445C2590.77 3416.3 2510.66 3374.94 2439 3322.12C2168.53 3122.76 2032.85 2777.46 2100 2448C2126.7 2317.03 2183.84 2190.89 2267 2086C2297.12 2048.01 2330.15 2013.6 2365 1980.01C2378.45 1967.05 2402 1955.91 2402 1936C2386.11 1938.35 2369.96 1946.88 2355 1952.58C2321.65 1965.26 2288.91 1979.8 2257 1995.75C2132.53 2057.99 2018.48 2138.52 1920 2237C1710.3 2446.7 1580.37 2723.06 1551.83 3018C1545.52 3083.21 1542.61 3150.66 1548.83 3216C1550.38 3232.31 1550.76 3248.7 1552.71 3265C1553.42 3270.86 1552.57 3278.83 1555.74 3284C1569.94 3307.15 1595.7 3327.18 1615 3346.01C1668.54 3398.24 1726.76 3445.17 1789 3486.67C2081.15 3681.43 2454.01 3737.55 2791 3640.71C2885.52 3613.55 2975.64 3574.58 3061 3525.85C3082.48 3513.59 3103.42 3500.38 3124 3486.67C3131.72 3481.52 3144.23 3476.11 3149 3468z"/>
<path style="fill:#d4d4d8; stroke:none;" d="M3197 2095.44C3136.04 2105.04 3151.11 2201.07 3212 2191.56C3219.63 2190.37 3226.58 2187.98 3233 2183.64C3275.92 2154.66 3246.92 2087.58 3197 2095.44z"/>

<path style="fill:#d4d4d8; stroke:none;" d="M938 3349L939 3350L938 3349z"/>
</svg>
